Coordinates
version=1
nRows=29
nColumns=22
inDegrees=yes

Units are S.I. units (second, meters, Newtons, ...)
If the header above contains a line with 'inDegrees', this indicates whether rotational values are in degrees (yes) or radians (no).

endheader
time	pelvis_tilt	pelvis_list	pelvis_rotation	pelvis_tx	pelvis_ty	pelvis_tz	hip_flexion_r	hip_adduction_r	hip_rotation_r	knee_angle_r	ankle_angle_r	subtalar_angle_r	hip_flexion_l	hip_adduction_l	hip_rotation_l	knee_angle_l	ankle_angle_l	subtalar_angle_l	lumbar_extension	lumbar_bending	lumbar_rotation
      2.68000000	      2.43956131	     -3.18355220	     29.97452448	      0.18282521	      1.06126693	      0.95906088	     19.45863931	      3.52599603	      2.91251275	    -19.18599676	      4.70274273	      5.95175513	     -9.21072425	      1.66013151	     15.11686078	    -28.49973076	     11.05999414	      2.62158757	     -4.14213885	      2.07470021	     -7.17517121
      2.69000000	      2.59141600	     -3.26342505	     30.66974560	      0.19199123	      1.06267954	      0.95473999	     18.86221812	      3.61063232	      2.55025567	    -19.39561767	      5.10618821	      5.53268454	     -8.57346097	      1.43349920	     15.04522376	    -30.47364775	      9.28114034	      4.57372569	     -4.04394261	      2.24078371	     -7.28571431
      2.70000000	      2.75152546	     -3.32737692	     31.40365838	      0.20099127	      1.06405711	      0.95037806	     18.19109633	      3.67878721	      2.07230931	    -19.48122426	      5.55820701	      5.03156310	     -7.81312885	      1.20499810	     14.92040321	    -32.59756597	      7.35582336	      6.57593169	     -3.97732356	      2.39346325	     -7.39212664
      2.71000000	      2.92742962	     -3.37934462	     32.12684809	      0.20982576	      1.06539067	      0.94606439	     17.45469164	      3.75806909	      1.56175987	    -19.45942006	      5.97110347	      4.49784880	     -6.93980127	      0.96848445	     14.69547272	    -34.85044300	      5.29254752	      8.58375670	     -3.95666330	      2.53991578	     -7.43991285
      2.72000000	      3.12593731	     -3.42720016	     32.84416951	      0.21844263	      1.06663784	      0.94178863	     16.67409709	      3.85331671	      0.99827441	    -19.36652832	      6.36676341	      3.96686893	     -5.95166027	      0.71408942	     14.38518556	    -37.23301518	      3.15503558	     10.47614462	     -3.99013779	      2.69905224	     -7.44026119
      2.73000000	      3.35535012	     -3.48057563	     33.54442304	      0.22682100	      1.06777021	      0.93758892	     15.86608981	      3.98052982	      0.39654876	    -19.23167053	      6.75031406	      3.47436746	     -4.85126587	      0.42855548	     13.99459663	    -39.73977471	      0.99104177	     12.13041397	     -4.08465282	      2.88446881	     -7.38302450
      2.74000000	      3.60419265	     -3.52908235	     34.20032480	      0.23499240	      1.06879298	      0.93347408	     15.03527364	      4.13366130	     -0.17598984	    -19.05488170	      7.10937456	      3.03656054	     -3.65723461	      0.12372466	     13.50869690	    -42.32770192	     -1.15792556	     13.53903342	     -4.23101517	      3.07990422	     -7.23321129
      2.75000000	      3.89048517	     -3.59346340	     34.82931266	      0.24291390	      1.06968867	      0.92947838	     14.20965924	      4.33606986	     -0.75313899	    -18.89063561	      7.46304884	      2.67235073	     -2.37662625	     -0.22921192	     12.97953219	    -44.98662738	     -3.21503173	     14.61631723	     -4.43830629	      3.31598601	     -7.03295347
      2.76000000	      4.19898844	     -3.65453608	     35.41120411	      0.25062262	      1.07048636	      0.92559839	     13.38371166	      4.56875149	     -1.27746674	    -18.72687449	      7.79374280	      2.37578344	     -1.03555871	     -0.60675788	     12.40486459	    -47.66192943	     -5.13407993	     15.42880344	     -4.69730709	      3.56564075	     -6.76317560
      2.77000000	      4.51304150	     -3.72183124	     35.95324836	      0.25815480	      1.07118956	      0.92182239	     12.57295270	      4.82727995	     -1.76649994	    -18.55731003	      8.11243176	      2.10031589	      0.36240864	     -1.01297695	     11.80749119	    -50.30154002	     -6.81943480	     16.05398564	     -4.97257415	      3.82299682	     -6.43530180
      2.78000000	      4.84765501	     -3.78370224	     36.45153963	      0.26550502	      1.07185228	      0.91818570	     11.76653668	      5.11437032	     -2.19841986	    -18.39771169	      8.38507757	      1.87121691	      1.77303436	     -1.43582043	     11.22703652	    -52.85897412	     -8.21952888	     16.41264560	     -5.29197181	      4.08387222	     -6.06281956
      2.79000000	      5.16308898	     -3.85391271	     36.90610134	      0.27272868	      1.07245021	      0.91466063	     10.99171889	      5.41559785	     -2.58811674	    -18.22406664	      8.62916612	      1.60791420	      3.21514089	     -1.86489588	     10.66257446	    -55.28323061	     -9.25277473	     16.48612274	     -5.59254554	      4.33263809	     -5.65887808
      2.80000000	      5.45301696	     -3.91568892	     37.31978403	      0.27982512	      1.07302869	      0.91123931	     10.24056520	      5.71438819	     -2.91106958	    -18.03564991	      8.83181476	      1.29147737	      4.66157883	     -2.26821106	     10.13659063	    -57.52852984	     -9.92213798	     16.07629254	     -5.87984928	      4.54684394	     -5.22991844
      2.81000000	      5.75003897	     -3.95672370	     37.68367993	      0.28683218	      1.07366309	      0.90789844	      9.47844356	      6.01505323	     -3.21659529	    -17.83732824	      8.94988526	      0.99292689	      6.05364686	     -2.66454108	      9.61672388	    -59.55565545	    -10.15828794	     15.23996218	     -6.18881079	      4.73933632	     -4.78209854
      2.82000000	      5.99881717	     -3.96641583	     38.01280165	      0.29375729	      1.07433615	      0.90457997	      8.71351579	      6.27779986	     -3.43428496	    -17.58280910	      9.06168890	      0.64233068	      7.41867796	     -2.98819678	      9.13756067	    -61.33435052	    -10.10763801	     13.89277696	     -6.46743698	      4.86384214	     -4.33017863
      2.83000000	      6.22417992	     -3.95838104	     38.30412649	      0.30062391	      1.07505012	      0.90128213	      7.94565239	      6.52429092	     -3.61476679	    -17.29727734	      9.15315734	      0.28529499	      8.73459279	     -3.27945511	      8.67047963	    -62.85931901	     -9.66420470	     12.27589708	     -6.73068245	      4.95113072	     -3.88607159
      2.84000000	      6.39459871	     -3.91141095	     38.56590918	      0.30740594	      1.07580127	      0.89796271	      7.18741334	      6.71055007	     -3.75614650	    -16.98400115	      9.21439492	     -0.08779798	     10.00413066	     -3.48894050	      8.22200540	    -64.11411803	     -8.92193538	     10.45089412	     -6.96511473	      4.96386388	     -3.46292799
      2.85000000	      6.52049608	     -3.84011762	     38.80915673	      0.31411679	      1.07658393	      0.89459550	      6.43597099	      6.85254839	     -3.87139798	    -16.64173578	      9.25633972	     -0.45611115	     11.22975308	     -3.64341421	      7.78087145	    -65.10004484	     -7.99283811	      8.57937623	     -7.16759651	      4.92495122	     -3.06734654
      2.86000000	      6.59972212	     -3.73794008	     39.03884916	      0.32074903	      1.07737882	      0.89115527	      5.69829260	      6.93781702	     -3.97841878	    -16.29231901	      9.31571551	     -0.80211584	     12.40342747	     -3.73456010	      7.34339601	    -65.81623689	     -6.93764403	      6.75591190	     -7.34209571	      4.82820032	     -2.69165326
      2.87000000	      6.63046549	     -3.60857146	     39.25949028	      0.32729105	      1.07817195	      0.88760826	      4.97907445	      6.96358721	     -4.07886945	    -15.94092106	      9.39684367	     -1.11368673	     13.52696539	     -3.76597002	      6.89995431	    -66.26431542	     -5.81485487	      5.02840158	     -7.48481738	      4.68323449	     -2.34522045
      2.88000000	      6.60796135	     -3.44981049	     39.47817585	      0.33375673	      1.07894573	      0.88395092	      4.28166886	      6.92417367	     -4.17215138	    -15.59104627	      9.51210791	     -1.36126266	     14.59606937	     -3.73301718	      6.45507760	    -66.44365572	     -4.65421674	      3.50796079	     -7.59359075	      4.48043508	     -2.03439527
      2.89000000	      6.53409486	     -3.26005953	     39.69762458	      0.34013309	      1.07968031	      0.88016410	      3.61028036	      6.81586536	     -4.28101166	    -15.25645187	      9.67035058	     -1.54791982	     15.60717533	     -3.63339038	      6.00459782	    -66.36124511	     -3.50039992	      2.15338201	     -7.67421822	      4.22339046	     -1.75134904
      2.90000000	      6.41876549	     -3.04925597	     39.92359860	      0.34644095	      1.08035386	      0.87625522	      2.96255249	      6.65458812	     -4.41119947	    -14.93632099	      9.87352210	     -1.66231877	     16.55833894	     -3.48750467	      5.55069123	    -66.02648442	     -2.36810352	      1.02695292	     -7.72839940	      3.92569988	     -1.49625703
      2.91000000	      6.27263780	     -2.82602678	     40.16132812	      0.35269688	      1.08094647	      0.87222808	      2.33606055	      6.45670671	     -4.57187320	    -14.63110621	     10.11966196	     -1.71312177	     17.44736058	     -3.31527250	      5.09037230	    -65.45099728	     -1.27444119	      0.12756132	     -7.76190953	      3.60094671	     -1.26509917
      2.92000000	      6.11312609	     -2.60214616	     40.41101591	      0.35892588	      1.08144399	      0.86810429	      1.72333549	      6.24638493	     -4.76410183	    -14.33856497	     10.39394017	     -1.71789573	     18.27136466	     -3.14774730	      4.61634679	    -64.65009702	     -0.22900735	     -0.57169297	     -7.78236565	      3.26868390	     -1.05193879
      2.93000000	      5.94858983	     -2.39120830	     40.66592515	      0.36513678	      1.08181220	      0.86391011	      1.14043888	      6.04069412	     -5.00332570	    -14.08311418	     10.72073853	     -1.70101753	     19.03806413	     -3.01050807	      4.11800678	    -63.64405256	      0.78330594	     -0.99680455	     -7.79183333	      2.94379343	     -0.82911965
      2.94000000	      5.79839038	     -2.16484378	     40.92449560	      0.37135894	      1.08212537	      0.85962824	      0.51549413	      5.83870751	     -5.20139337	    -13.79908992	     11.02212977	     -1.66406246	     19.70382304	     -2.90245482	      3.57011303	    -62.43050438	      1.71404216	     -1.41174260	     -7.82674848	      2.61534328	     -0.64402549
      2.95000000	      5.67318030	     -1.95571565	     41.18295818	      0.37758173	      1.08231224	      0.85528595	     -0.10219493	      5.66851462	     -5.43048238	    -13.54971866	     11.35293617	     -1.62916690	     20.29813947	     -2.86612817	      2.96739422	    -61.04829048	      2.61638128	     -1.63745584	     -7.87384373	      2.31873819	     -0.43739641
      2.96000000	      5.54002617	     -1.76752102	     41.42738786	      0.38380225	      1.08233653	      0.85089454	     -0.68430480	      5.51075353	     -5.64554921	    -13.33417367	     11.72514968	     -1.60846241	     20.85044646	     -2.88326164	      2.28748112	    -59.51065136	      3.45695685	     -1.73667831	     -7.90398506	      2.03175156	     -0.21589539
